<svg height="12" viewBox="0 0 12 12" width="12" xmlns="http://www.w3.org/2000/svg"><path d="m8.5 2c.77969882 0 1.420449.59488554 1.49313345 1.35553954l.00686655.14446046v5c0 .77969882-.59488554 1.420449-1.35553954 1.49313345l-.14446046.00686655h-5c-.77969882 0-1.420449-.59488554-1.49313345-1.35553954l-.00686655-.14446046v-5c0-.77969882.59488554-1.420449 1.35553954-1.49313345l.14446046-.00686655zm0 1h-5c-.27614 0-.5.22386-.5.5v5c0 .27614.22386.5.5.5h5c.27614 0 .5-.22386.5-.5v-5c0-.27614-.22386-.5-.5-.5z" fill="#212121"/></svg>